<svg width="4002" height="2005" viewBox="0 0 4002 2005" fill="none" xmlns="http://www.w3.org/2000/svg">
<mask id="mask0_4034_1129" style="mask-type:alpha" maskUnits="userSpaceOnUse" x="0" y="0" width="4002" height="2005">
<rect width="4002" height="2005" fill="#D9D9D9"/>
</mask>
<g mask="url(#mask0_4034_1129)">
<g filter="url(#filter0_f_4034_1129)">
<path d="M1913.87 1554.2L1883.85 1272.94C2496.03 1207.61 2963.48 868.659 2925.98 517.297L3416.03 465C3470.07 971.418 2796.19 1460.04 1913.87 1554.2Z" fill="url(#paint0_linear_4034_1129)"/>
</g>
<g filter="url(#filter1_f_4034_1129)">
<path d="M1898.22 1407.58L1872.99 1171.18C2387.41 1116.28 2780.32 831.385 2748.81 536.131L3160.7 492.175C3206.12 917.819 2639.69 1328.45 1898.22 1407.58Z" fill="url(#paint1_linear_4034_1129)"/>
</g>
<g filter="url(#filter2_f_4034_1129)">
<path d="M2208.19 1522.72L2178.17 1241.45C1566 1306.79 1037.54 1074.12 1000.04 722.758L510 775.055C564.045 1281.47 1325.86 1616.88 2208.19 1522.72Z" fill="url(#paint2_linear_4034_1129)"/>
</g>
<g filter="url(#filter3_f_4034_1129)">
<path d="M1913.87 1554.2L1883.85 1272.94C2496.03 1207.61 2963.48 868.659 2925.98 517.297L3416.03 465C3470.07 971.418 2796.19 1460.04 1913.87 1554.2Z" fill="url(#paint3_linear_4034_1129)"/>
</g>
<g filter="url(#filter4_f_4034_1129)">
<path d="M1898.22 1407.58L1872.99 1171.18C2387.41 1116.28 2780.32 831.385 2748.81 536.131L3160.7 492.175C3206.12 917.819 2639.69 1328.45 1898.22 1407.58Z" fill="url(#paint4_linear_4034_1129)"/>
</g>
<g filter="url(#filter5_f_4034_1129)">
<path d="M2208.19 1522.72L2178.17 1241.45C1566 1306.79 1037.54 1074.12 1000.04 722.758L510 775.055C564.045 1281.47 1325.86 1616.88 2208.19 1522.72Z" fill="url(#paint5_linear_4034_1129)"/>
</g>
</g>
<defs>
<filter id="filter0_f_4034_1129" x="1483.85" y="65" width="2335.21" height="1889.2" filterUnits="userSpaceOnUse" color-interpolation-filters="sRGB">
<feFlood flood-opacity="0" result="BackgroundImageFix"/>
<feBlend mode="normal" in="SourceGraphic" in2="BackgroundImageFix" result="shape"/>
<feGaussianBlur stdDeviation="200" result="effect1_foregroundBlur_4034_1129"/>
</filter>
<filter id="filter1_f_4034_1129" x="1473" y="92.1747" width="2090.25" height="1715.41" filterUnits="userSpaceOnUse" color-interpolation-filters="sRGB">
<feFlood flood-opacity="0" result="BackgroundImageFix"/>
<feBlend mode="normal" in="SourceGraphic" in2="BackgroundImageFix" result="shape"/>
<feGaussianBlur stdDeviation="200" result="effect1_foregroundBlur_4034_1129"/>
</filter>
<filter id="filter2_f_4034_1129" x="110" y="322.758" width="2498.19" height="1615.8" filterUnits="userSpaceOnUse" color-interpolation-filters="sRGB">
<feFlood flood-opacity="0" result="BackgroundImageFix"/>
<feBlend mode="normal" in="SourceGraphic" in2="BackgroundImageFix" result="shape"/>
<feGaussianBlur stdDeviation="200" result="effect1_foregroundBlur_4034_1129"/>
</filter>
<filter id="filter3_f_4034_1129" x="1483.85" y="65" width="2335.21" height="1889.2" filterUnits="userSpaceOnUse" color-interpolation-filters="sRGB">
<feFlood flood-opacity="0" result="BackgroundImageFix"/>
<feBlend mode="normal" in="SourceGraphic" in2="BackgroundImageFix" result="shape"/>
<feGaussianBlur stdDeviation="200" result="effect1_foregroundBlur_4034_1129"/>
</filter>
<filter id="filter4_f_4034_1129" x="1473" y="92.1747" width="2090.25" height="1715.41" filterUnits="userSpaceOnUse" color-interpolation-filters="sRGB">
<feFlood flood-opacity="0" result="BackgroundImageFix"/>
<feBlend mode="normal" in="SourceGraphic" in2="BackgroundImageFix" result="shape"/>
<feGaussianBlur stdDeviation="200" result="effect1_foregroundBlur_4034_1129"/>
</filter>
<filter id="filter5_f_4034_1129" x="110" y="322.758" width="2498.19" height="1615.8" filterUnits="userSpaceOnUse" color-interpolation-filters="sRGB">
<feFlood flood-opacity="0" result="BackgroundImageFix"/>
<feBlend mode="normal" in="SourceGraphic" in2="BackgroundImageFix" result="shape"/>
<feGaussianBlur stdDeviation="200" result="effect1_foregroundBlur_4034_1129"/>
</filter>
<linearGradient id="paint0_linear_4034_1129" x1="1864.84" y1="1094.96" x2="3465.05" y2="924.185" gradientUnits="userSpaceOnUse">
<stop stop-color="#9403FD"/>
<stop offset="1" stop-color="#00ADFE"/>
</linearGradient>
<linearGradient id="paint1_linear_4034_1129" x1="1857.02" y1="1021.66" x2="3201.83" y2="878.146" gradientUnits="userSpaceOnUse">
<stop stop-color="#9403FD"/>
<stop offset="1" stop-color="#00ADFE"/>
</linearGradient>
<linearGradient id="paint2_linear_4034_1129" x1="2159.2" y1="1063.46" x2="558.987" y2="1234.24" gradientUnits="userSpaceOnUse">
<stop stop-color="#FF12DC"/>
<stop offset="1" stop-color="#FFB912"/>
</linearGradient>
<linearGradient id="paint3_linear_4034_1129" x1="1864.84" y1="1094.96" x2="3465.05" y2="924.185" gradientUnits="userSpaceOnUse">
<stop stop-color="#9403FD"/>
<stop offset="1" stop-color="#00ADFE"/>
</linearGradient>
<linearGradient id="paint4_linear_4034_1129" x1="1857.02" y1="1021.66" x2="3201.83" y2="878.146" gradientUnits="userSpaceOnUse">
<stop stop-color="#9403FD"/>
<stop offset="1" stop-color="#00ADFE"/>
</linearGradient>
<linearGradient id="paint5_linear_4034_1129" x1="2159.2" y1="1063.46" x2="558.987" y2="1234.24" gradientUnits="userSpaceOnUse">
<stop stop-color="#FF12DC"/>
<stop offset="1" stop-color="#FFB912"/>
</linearGradient>
</defs>
</svg>
